# Exported from Wings 3D 1.4.1
mtllib edificio1.mtl
o cube1
#8 vertices, 6 faces
v -1.00000000 -1.00000000 1.85098577
v 4.0173249e-3 4.00370256 1.85098577
v 2.00401732 4.00370256 1.85098577
v 2.00401732 -1.00000000 1.85098577
v -1.00000000 -1.00000000 -1.00000000
v 4.0173249e-3 4.00370256 -1.00000000
v 2.00401732 4.00370256 -1.00000000
v 2.00401732 -1.00000000 -1.00000000
vt 0.0000000e+0 0.33333333
vt 0.0000000e+0 0.66666667
vt 2.7755576e-17 0.0000000e+0
vt 5.5511151e-17 0.33333333
vt 0.33333333 0.33333333
vt 0.33333333 0.66666667
vt 0.33333333 0.0000000e+0
vt 0.33333333 5.5511151e-17
vt 0.33333333 0.33333333
vt 0.33333333 0.33333333
vt 0.33333333 0.33333333
vt 0.33333333 0.66666667
vt 0.66666667 0.0000000e+0
vt 0.66666667 2.7755576e-17
vt 0.66666667 0.33333333
vt 0.66666667 0.33333333
vt 0.66666667 0.66666667
vt 1.00000000 2.7755576e-17
vt 1.00000000 0.33333333
vt 1.00000000 0.66666667
vn -0.60729113 -0.49754005 0.61939598
vn -0.53223906 0.64964429 0.54284793
vn 0.57735027 0.57735027 0.57735027
vn 0.57735027 -0.57735027 0.57735027
vn -0.60729113 -0.49754005 -0.61939598
vn -0.53223906 0.64964429 -0.54284793
vn 0.57735027 0.57735027 -0.57735027
vn 0.57735027 -0.57735027 -0.57735027
g cube1_cube1_auv
usemtl cube1_auv
s 1
f 1/16/1 4/19/4 3/20/3 2/17/2
f 1/18/1 5/19/5 8/15/8 4/13/4
f 2/16/2 6/9/6 5/7/5 1/14/1
f 3/8/3 7/5/7 6/1/6 2/3/2
f 4/4/4 8/11/8 7/6/7 3/2/3
f 6/17/6 7/12/7 8/10/8 5/16/5
